# xmcd CD database file
#
# Track frame offsets:
#	150
#	19298
#	34961
#	54208
#	74073
#	102770
#	110989
#	135211
#	155908
#	169973
#	199155
#
# Disc length: 2825 seconds
#
# Revision: 0
# Processed by: cddbd v1.5.1PL2 Copyright (c) Steve Scherf et al.
# Submitted via: CDex 1.51
#
DISCID=a10b070b
DTITLE=Mark Feldman and Sylvie Courvoisier  - Malphas: Book Of Angels Vol. 3
DYEAR=2006
DGENRE=Jazz
TTITLE0=Azriel
TTITLE1=Basus
TTITLE2=Rigal
TTITLE3=Kafziel
TTITLE4=Labariel
TTITLE5=Zethar
TTITLE6=Paschal
TTITLE7=Boel
TTITLE8=Sammael
TTITLE9=Padiel
TTITLE10=Sretil
EXTD=YEAR: 2006
EXTT0=
EXTT1=
EXTT2=
EXTT3=
EXTT4=
EXTT5=
EXTT6=
EXTT7=
EXTT8=
EXTT9=
EXTT10=
PLAYORDER=
